<svg width="20" height="16" viewBox="0 0 20 16" fill="none" xmlns="http://www.w3.org/2000/svg">
<path fill-rule="evenodd" clip-rule="evenodd" d="M0.978027 2H4.3977L8.10978 8.49614L8.3977 9H8.97803H17.978V7H9.55835L5.84627 0.503861L5.55835 0H4.97803H0.978027V2ZM8.97803 3H19.978V1H8.97803V3ZM9.97803 6H18.978V4H9.97803V6ZM7.97803 13C7.97803 12.4446 8.4226 12 8.97803 12C9.53346 12 9.97803 12.4446 9.97803 13C9.97803 13.5554 9.53346 14 8.97803 14C8.4226 14 7.97803 13.5554 7.97803 13ZM15.978 13C15.978 12.4446 16.4226 12 16.978 12C17.5335 12 17.978 12.4446 17.978 13C17.978 13.5554 17.5335 14 16.978 14C16.4226 14 15.978 13.5554 15.978 13ZM8.97803 10C7.31803 10 5.97803 11.34 5.97803 13C5.97803 14.66 7.31803 16 8.97803 16C10.638 16 11.978 14.66 11.978 13C11.978 11.34 10.638 10 8.97803 10ZM16.978 10C15.318 10 13.978 11.34 13.978 13C13.978 14.66 15.318 16 16.978 16C18.638 16 19.978 14.66 19.978 13C19.978 11.34 18.638 10 16.978 10Z" fill="#2595DF"/>
</svg>
