<svg width="20" height="19" viewBox="0 0 20 19" fill="none" xmlns="http://www.w3.org/2000/svg">
<path fill-rule="evenodd" clip-rule="evenodd" d="M13.6003 5V8H11.6003V5H8.60034V3H11.6003V0H13.6003V3H16.6003V5H13.6003ZM4.02002 5H0.600342V3H4.60034H5.18066L5.46859 3.50386L9.18066 10H17.6003V12H8.60034H8.02002L7.7321 11.4961L4.02002 5ZM16.6003 15C16.0449 15 15.6003 15.4446 15.6003 16C15.6003 16.5554 16.0449 17 16.6003 17C17.1558 17 17.6003 16.5554 17.6003 16C17.6003 15.4446 17.1558 15 16.6003 15ZM13.6003 16C13.6003 14.34 14.9403 13 16.6003 13C18.2603 13 19.6003 14.34 19.6003 16C19.6003 17.66 18.2603 19 16.6003 19C14.9403 19 13.6003 17.66 13.6003 16ZM7.57849 16C7.57849 15.4446 8.02306 15 8.57849 15C9.13392 15 9.57849 15.4446 9.57849 16C9.57849 16.5554 9.13392 17 8.57849 17C8.02306 17 7.57849 16.5554 7.57849 16ZM5.57849 16C5.57849 14.34 6.91849 13 8.57849 13C10.2385 13 11.5785 14.34 11.5785 16C11.5785 17.66 10.2385 19 8.57849 19C6.91849 19 5.57849 17.66 5.57849 16Z" fill="#2595DF"/>
</svg>
