<svg width="10" height="14" viewBox="0 0 10 14" fill="none" xmlns="http://www.w3.org/2000/svg">
<path d="M5 0C2.23571 0 0 2.191 0 4.9C0 8.575 5 14 5 14C5 14 10 8.575 10 4.9C10 2.191 7.76429 0 5 0ZM5 6.65C4.5264 6.65 4.0722 6.46563 3.73731 6.13744C3.40242 5.80925 3.21429 5.36413 3.21429 4.9C3.21429 4.43587 3.40242 3.99075 3.73731 3.66256C4.0722 3.33437 4.5264 3.15 5 3.15C5.4736 3.15 5.9278 3.33437 6.26269 3.66256C6.59758 3.99075 6.78571 4.43587 6.78571 4.9C6.78571 5.36413 6.59758 5.80925 6.26269 6.13744C5.9278 6.46563 5.4736 6.65 5 6.65Z" fill="#111111"/>
</svg>
