<svg width="93" height="46" viewBox="0 0 93 46" fill="none" xmlns="http://www.w3.org/2000/svg">
<path fill-rule="evenodd" clip-rule="evenodd" d="M90.9475 28.1035C91.2581 28.1035 91.5887 28.0234 91.7991 27.9134L92.1998 29.8441C91.3483 30.2542 90.4967 30.4243 89.6651 30.4243C87.7917 30.4243 86.5293 29.9441 86.5293 28.0134V22.3914H85.7178V20.1906H86.5293C86.5293 19.2102 86.5494 18.3799 86.6496 17.7197L89.9957 17.2195C89.8755 18.2799 89.8956 19.2702 89.8956 20.1906H91.729L91.2881 22.3914H89.8956V26.4128C89.9056 27.7933 90.0959 28.1035 90.9475 28.1035ZM80.7386 28.0434C81.6102 28.0434 82.5019 27.7133 83.3635 27.0431L84.6559 28.9738C83.3234 29.9941 82.0811 30.4043 80.5984 30.4043C77.4125 30.4043 75.6492 28.4536 75.6492 25.2324C75.6492 21.9512 77.3724 19.9405 80.1876 19.9405C83.3935 19.9405 84.716 21.9912 84.6959 25.4025V26.2328H79.1256C79.1356 26.843 79.346 28.0434 80.7386 28.0434ZM81.3698 24.052C81.4099 22.9516 81.1193 22.2713 80.3078 22.2713C79.5965 22.2713 79.1256 22.7115 79.1256 24.052H81.3698ZM75.8395 30.1442H72.0726L69.4978 24.5021L71.2611 20.1806H75.2084L72.4833 24.232L75.8395 30.1442ZM66.1115 19.4903C66.1115 18.1798 66.0715 17.1495 65.9212 16.5392L69.2674 15.959C69.4076 16.7493 69.4778 17.5596 69.4778 19.4703V30.1442H66.1115V19.4903ZM61.9939 27.9134C62.7453 27.9134 63.3665 27.5432 63.8273 27.0231L65.2399 28.9938C64.178 30.0542 62.8856 30.4043 61.6633 30.4043C58.8781 30.4043 57.1449 28.6437 57.1449 25.2724C57.1449 21.9312 58.9282 19.9405 61.9238 19.9405C63.1561 19.9405 64.0076 20.3106 64.9995 21.1209L63.4566 23.1516C63.0659 22.7415 62.5049 22.4214 62.044 22.4214C61.2525 22.4214 60.8217 22.8415 60.8217 25.0623C60.8117 27.0831 61.0221 27.9134 61.9939 27.9134ZM51.5446 30.4043C48.6793 30.4043 46.926 28.5136 46.926 25.2124C46.926 22.1013 48.8195 19.9405 51.7349 19.9405C54.1895 19.9405 56.2934 21.351 56.2934 24.9223C56.3034 28.8537 53.929 30.4043 51.5446 30.4043ZM51.6047 22.2713C50.9134 22.2713 50.5628 22.7915 50.5628 25.2624C50.5628 27.1931 50.683 28.0434 51.6247 28.0434C52.4162 28.0434 52.6667 27.1931 52.6667 24.8223C52.6667 22.8315 52.3962 22.2713 51.6047 22.2713ZM41.4559 25.3625H40.3739V30.1542H36.9175V16.6893H41.3056C44.732 16.6893 46.7357 17.8097 46.7357 20.8808C46.7357 22.8715 45.8641 25.3625 41.4559 25.3625ZM41.5761 19.5303H40.3739V22.6215H41.3758C42.4578 22.6215 42.9587 22.3313 42.9587 20.8608C42.9687 19.7404 42.4077 19.5303 41.5761 19.5303ZM41.2455 43.1289C42.598 43.1289 43.139 42.6288 43.139 41.8885C43.139 41.2883 42.7182 41.0182 41.7865 40.7881L40.2036 40.3779C38.25 39.8778 36.9175 38.7974 36.9175 36.4765C36.9175 33.8155 39.1216 32.0349 42.1372 32.0349C44.0106 32.0349 45.7539 32.5151 46.9461 33.3454L45.283 35.8063C44.3713 35.2061 43.1791 34.8559 42.2474 34.8559C41.3557 34.8559 40.8748 35.2761 40.8748 35.8263C40.8748 36.2664 41.1854 36.7166 42.1873 36.9667L43.5598 37.3168C45.0125 37.687 47.0963 38.3372 47.0963 41.0482C47.0963 44.2694 44.7019 45.97 41.1954 45.97C39.1617 45.97 37.5787 45.4698 36.2262 44.7495L37.4485 42.0486C38.4203 42.5988 39.873 43.1289 41.2455 43.1289ZM30.726 15.6889H28.2815L30.8663 5.68526L16.0789 1.88387L14.8968 6.48555L13.7246 2.82421C13.6945 2.73418 13.6545 2.64415 13.6144 2.56412L13.8949 1.45371C14.1654 0.413331 15.2173 -0.206895 16.2593 0.0632033L31.7279 4.04466C32.7598 4.31476 33.391 5.36514 33.1205 6.40552L30.726 15.6889ZM15.2374 11.1973L13.2337 4.94499L5.44927 7.4359L8.10418 15.6889H7.37283L7.15242 15.0087L7.2526 15.4388C5.47932 14.2584 3.69602 15.4588 3.44556 15.6189C1.88267 16.8393 -0.311395 20.0205 2.26337 27.7433C3.80623 32.355 3.88637 36.2864 3.88637 36.2864C3.88637 36.2864 3.91643 36.4265 3.92645 36.4965C3.99658 36.5065 4.09676 36.5866 4.09676 36.5866C4.09676 36.5866 4.07673 38.2472 4.10678 38.5273C4.12682 38.8074 4.26708 39.5877 4.29713 39.7477C4.32719 39.9078 4.28712 39.9178 4.28712 40.0878C4.28712 40.2579 4.31717 40.488 4.2771 40.6781C4.25706 40.7981 4.1168 40.8481 4.1168 40.8481L4.13684 41.4483C4.31717 41.6584 4.43739 41.9085 4.48749 42.1986C4.59769 42.9589 4.08675 43.6491 3.35539 43.7292C2.61402 43.8092 1.92274 43.259 1.81254 42.4887C1.70233 41.7284 2.21328 41.0382 2.94463 40.9582C3.18508 40.9281 3.4155 40.9682 3.62589 41.0582C3.61587 40.9882 3.61587 40.8981 3.59584 40.8381C3.52571 40.8081 3.4656 40.7281 3.44556 40.638C3.42552 40.548 3.4155 40.2579 3.40548 40.1679C3.39547 40.0678 3.36541 39.9178 3.37543 39.7277C3.38545 39.5376 3.56578 38.7774 3.5758 38.5173C3.58582 38.2572 3.61587 36.6466 3.62589 36.5966C3.63591 36.5465 3.72608 36.4965 3.72608 36.4965L3.70604 36.3265C3.70604 36.3265 3.60585 32.415 2.05298 27.8033C0.199551 22.2813 0.790645 19.0401 1.84259 17.1795C-0.922526 21.421 1.15131 29.734 1.15131 29.734L1.26152 29.7641C1.26152 29.7641 1.71235 31.5347 1.78248 31.7848C1.85261 32.0449 1.91272 32.0849 2.04296 32.395C2.1732 32.7051 2.21328 32.8252 2.24333 32.9752C2.28341 33.1353 2.27339 33.1053 2.27339 33.1753C2.27339 33.2453 2.29343 33.2653 2.34352 33.4454C2.39361 33.6255 2.35354 33.8356 2.35354 33.8356L2.31346 33.9156L2.62404 35.086C2.62404 35.086 2.7643 35.046 2.80437 35.046C2.84445 35.046 2.8745 35.006 2.89454 35.096C2.92459 35.176 2.98471 35.5362 2.82441 35.7663C2.70419 35.9363 2.35354 36.0464 2.19324 36.0864C2.16318 36.3265 2.07302 36.5265 1.93276 36.6366C1.89268 36.6666 1.61216 36.8166 1.56207 36.8366C1.17135 36.9667 0.670422 36.4865 0.429977 35.7663C0.199551 35.036 0.319773 34.3557 0.710496 34.2257C0.730533 34.2157 0.970978 34.1857 1.00103 34.1757C1.24148 34.1457 1.522 34.2857 1.75242 34.5558C1.85261 34.6158 1.9528 34.6959 1.99287 34.7459C2.03294 34.7959 2.09306 34.8059 2.09306 34.8059L1.87265 34.0456L1.75242 33.9956C1.75242 33.9956 1.68229 33.9156 1.62218 33.8055C1.56207 33.6955 1.61217 33.6455 1.522 33.4554C1.43183 33.2653 1.38174 32.9752 1.35168 32.6951C1.32163 32.415 1.31161 32.245 1.27153 31.9749C1.24148 31.7048 0.880811 29.8941 0.880811 29.8941C0.880811 29.8941 0.970978 29.7941 1.02107 29.7841C-1.24312 19.9105 1.70233 16.4992 3.50567 15.3688C3.72608 15.2087 5.3591 14.0783 7.09231 14.8186L5.6296 10.2569C5.57951 10.2669 5.52942 10.2469 5.50938 10.1969L5.3591 9.71673C5.33906 9.66671 5.36912 9.6167 5.41921 9.59669L5.12867 8.68636C5.07858 8.69636 5.02849 8.66635 5.00845 8.61633L4.85817 8.14616C4.83814 8.09614 4.86819 8.04612 4.91828 8.02612L4.57765 6.98573C4.53758 7.00574 4.48749 7.00574 4.48749 6.98573L4.227 6.17544C4.21699 6.15543 4.25706 6.13542 4.30715 6.11542L4.227 5.88533C3.98656 5.12505 4.40734 4.31476 5.15873 4.07467L9.84741 2.57412C9.82737 2.5241 9.82737 2.47408 9.84741 2.47408L11.26 2.02392C11.2801 2.01392 11.3001 2.05393 11.3201 2.10395L11.5205 2.04393C12.2819 1.80384 13.0934 2.21399 13.3339 2.97427L15.6582 10.2069L15.2374 11.1973ZM7.49305 5.07504C7.46299 4.965 7.34277 4.90497 7.23257 4.93498C7.12236 4.975 7.06225 5.08504 7.09231 5.20508C7.13238 5.31512 7.24259 5.37515 7.35279 5.34513C7.47301 5.30512 7.53312 5.18508 7.49305 5.07504ZM9.70715 4.37478C9.66707 4.26474 9.54685 4.20472 9.43665 4.24473L8.10418 4.66489C7.99398 4.7049 7.93387 4.82494 7.97394 4.93498C8.00399 5.04502 8.12422 5.10505 8.23442 5.06503L9.56689 4.63487C9.67709 4.60486 9.7372 4.48482 9.70715 4.37478ZM13.4641 15.6889L17.6318 6.83568C18.0927 5.84532 19.2849 5.40516 20.2767 5.87533L26.7086 8.86642C27.7105 9.32659 28.1413 10.517 27.6704 11.5074L25.6767 15.6789H13.4641V15.6889ZM21.0882 7.25583L19.9762 6.73564C19.6355 6.57558 19.2248 6.72564 19.0645 7.06576L19.0344 7.11578C18.8741 7.45591 19.0244 7.86606 19.365 8.02612L20.4771 8.5463C20.8177 8.70636 21.2285 8.55631 21.3888 8.21618L21.4188 8.15616C21.5791 7.81604 21.4288 7.41589 21.0882 7.25583ZM4.60771 17.5496C4.61773 16.9394 5.10864 16.4592 5.71977 16.4592L31.5275 16.4492C32.1487 16.4492 32.6496 16.9494 32.6496 17.5696V31.3546C32.6496 39.1775 26.3179 45.5698 18.5836 45.5698C10.8493 45.5698 4.60771 39.1675 4.60771 31.3546V17.5496ZM29.7042 33.5254C30.0448 33.5254 30.3353 33.2653 30.3654 32.9252C30.3954 32.5751 30.4155 32.225 30.4155 31.8748V30.2142C30.4155 29.8541 30.1149 29.554 29.7542 29.554C29.3936 29.554 29.093 29.8541 29.093 30.2142V31.8748C29.093 32.1849 29.083 32.5051 29.0529 32.8152C29.0329 32.9952 29.093 33.1653 29.2032 33.2954C29.3134 33.4254 29.4737 33.5154 29.6541 33.5254H29.7042ZM27.2797 38.9474C27.3899 39.0275 27.5201 39.0675 27.6604 39.0675C27.8708 39.0675 28.0812 38.9674 28.2014 38.7874C28.7424 38.0171 29.1932 37.1868 29.5439 36.3265C29.6841 35.9863 29.5138 35.6062 29.1732 35.4661C29.093 35.4361 29.0129 35.4161 28.9327 35.4161C28.6622 35.4161 28.4218 35.5762 28.3216 35.8263C28.011 36.5966 27.6103 37.3368 27.1294 38.0171C27.0292 38.1571 26.9891 38.3372 27.0192 38.5073C27.0492 38.6973 27.1394 38.8474 27.2797 38.9474ZM22.5108 42.4587C22.621 42.6988 22.8515 42.8489 23.112 42.8489C23.2021 42.8489 23.3023 42.8288 23.3825 42.7888C24.234 42.3987 25.0455 41.9185 25.7869 41.3383C26.0774 41.1182 26.1275 40.6981 25.8971 40.418C25.7669 40.2579 25.5765 40.1679 25.3761 40.1679C25.2259 40.1679 25.0856 40.2179 24.9654 40.3079C24.3042 40.8181 23.5828 41.2583 22.8314 41.5984C22.5008 41.7284 22.3606 42.1286 22.5108 42.4587ZM16.7402 43.4891C16.8504 43.6291 17.0107 43.7192 17.181 43.7392C17.6418 43.7892 18.1127 43.8192 18.5736 43.8192C19.0444 43.8192 19.5253 43.7892 19.9962 43.7292C20.3569 43.6892 20.6173 43.359 20.5672 42.9989C20.5272 42.6688 20.2467 42.4187 19.916 42.4187H19.8359C19.4251 42.4687 19.0044 42.4987 18.5736 42.4987C18.1628 42.4987 17.742 42.4787 17.3313 42.4287H17.2511C16.9205 42.4287 16.64 42.6788 16.5999 43.0089C16.5899 43.179 16.64 43.349 16.7402 43.4891ZM11.3903 41.3483C12.1316 41.9285 12.9431 42.4187 13.7947 42.7988C13.8849 42.8388 13.975 42.8589 14.0652 42.8589C14.3257 42.8589 14.5561 42.7088 14.6663 42.4687C14.7365 42.3087 14.7465 42.1286 14.6763 41.9685C14.6162 41.8085 14.496 41.6784 14.3257 41.5984C13.5643 41.2583 12.853 40.8281 12.1817 40.3079C12.0615 40.2179 11.9212 40.1679 11.781 40.1679C11.5806 40.1679 11.3903 40.2579 11.26 40.418C11.1498 40.558 11.0997 40.7281 11.1298 40.9081C11.1699 41.0782 11.25 41.2383 11.3903 41.3483ZM7.62329 36.3565C7.97394 37.2268 8.42477 38.0471 8.97579 38.8174C9.09602 38.9874 9.29639 39.0975 9.51679 39.0975C9.65705 39.0975 9.7873 39.0575 9.8975 38.9774C10.1981 38.7674 10.2682 38.3572 10.0578 38.0571C9.57691 37.3768 9.16615 36.6366 8.85557 35.8663C8.75539 35.6162 8.51494 35.4561 8.24444 35.4561C8.16429 35.4561 8.07412 35.4762 7.99398 35.5062C7.83368 35.5762 7.70344 35.6962 7.63331 35.8563C7.55316 36.0163 7.55316 36.1864 7.62329 36.3565ZM6.75168 31.8748C6.75168 32.235 6.77171 32.5951 6.80177 32.9552C6.83183 33.2954 7.11234 33.5555 7.46299 33.5555H7.5231C7.88377 33.5254 8.15427 33.2053 8.12422 32.8452C8.09416 32.5251 8.08414 32.205 8.08414 31.8848V30.2442C8.08414 29.8841 7.78359 29.584 7.42292 29.584C7.06225 29.584 6.7617 29.8841 6.7617 30.2442V31.8748H6.75168ZM18.5836 33.5855L31.6878 26.823V17.9798C31.6878 17.6996 31.4574 17.4696 31.1769 17.4696H6.08043H6.09045C5.80993 17.4696 5.57951 17.6996 5.57951 17.9798V17.9697V26.823L18.5836 33.5855ZM24.224 25.3725C23.4526 27.7533 21.2185 29.474 18.5736 29.474C15.9287 29.474 13.6845 27.7433 12.9231 25.3524C15.1572 26.1928 17.1108 26.6029 18.9442 26.6029C20.7877 26.6129 22.4908 26.1928 24.224 25.3725ZM19.7958 25.5825H17.4314C16.9305 25.5825 16.5298 25.1824 16.5298 24.6822V22.3213C16.5298 21.8212 16.9305 21.421 17.4314 21.421H19.7958C20.2967 21.421 20.6975 21.8212 20.6975 22.3213V24.6822C20.6975 25.1724 20.2967 25.5825 19.7958 25.5825ZM20.3569 22.3914C20.3569 22.0412 20.0663 21.7511 19.7157 21.7511H17.5116C17.1609 21.7511 16.8804 22.0312 16.8804 22.3914V24.5922C16.8804 24.9423 17.1609 25.2224 17.5116 25.2224H19.7157C20.0663 25.2224 20.3569 24.9423 20.3569 24.5922V22.3914ZM49.06 33.2954L52.4062 32.7952C52.2859 33.8556 52.306 34.8459 52.306 35.7663H54.1394L53.6986 37.9671H52.306V41.9785C52.306 43.369 52.4963 43.6791 53.3479 43.6791C53.6585 43.6791 53.9891 43.5991 54.1995 43.4891L54.6103 45.4198C53.7587 45.8299 52.9071 46 52.0756 46C50.2021 46 48.9398 45.5198 48.9398 43.5891V37.9671H48.1283V35.7663H48.9398C48.9398 34.7859 48.9598 33.9556 49.06 33.2954ZM59.5694 35.5162C62.024 35.5162 64.1279 36.9267 64.1279 40.498C64.1279 44.4394 61.7535 45.98 59.3691 45.98C56.5038 45.98 54.7505 44.0893 54.7505 40.7881C54.7505 37.677 56.644 35.5162 59.5694 35.5162ZM59.4492 43.6291C60.2407 43.6291 60.4911 42.7788 60.4911 40.408C60.4911 38.4172 60.2206 37.857 59.4292 37.857C58.7379 37.857 58.3872 38.3772 58.3872 40.8481C58.3872 42.7788 58.4974 43.6291 59.4492 43.6291ZM68.536 36.7166C68.9468 36.1764 69.5178 35.4762 70.5898 35.4762C71.0707 35.4762 71.3813 35.5762 71.8421 35.7663L71.0707 38.4672C70.7201 38.2772 70.4696 38.1971 70.0889 38.1971C69.5078 38.1971 69.1371 38.5073 68.9067 38.9074V45.7199H65.5405V39.6577C65.5405 38.3872 65.5004 37.1268 65.2299 36.0464L68.3256 35.5362C68.4258 35.8863 68.536 36.3065 68.536 36.7166ZM76.1902 35.5162C79.3961 35.5162 80.7186 37.5669 80.6985 40.9782V41.8085H75.1282C75.1282 42.4287 75.3386 43.6191 76.7312 43.6191C77.6028 43.6191 78.4945 43.289 79.3561 42.6188L80.6484 44.5495C79.316 45.5698 78.0737 45.98 76.5909 45.98C73.405 45.98 71.6418 44.0293 71.6418 40.8081C71.6418 37.5269 73.365 35.5162 76.1902 35.5162ZM77.3624 39.6277C77.4024 38.5273 77.1119 37.847 76.3004 37.847C75.5891 37.847 75.1182 38.2872 75.1182 39.6277H77.3624Z" fill="#2595DF"/>
</svg>
