<svg width="14" height="12" viewBox="0 0 14 12" fill="none" xmlns="http://www.w3.org/2000/svg">
<path fill-rule="evenodd" clip-rule="evenodd" d="M4.51002 4.37L5.72002 3.03C5.72002 3.03 5.96001 2.78 5.96001 2.54C5.96001 2.29 5.72002 2.05 5.72002 2.05L3.79002 0.12C3.79002 0.12 3.63002 0 3.42002 0C3.20002 0 2.94002 0.12 2.94002 0.12L1.24002 1.7C1.24002 1.7 0.970015 2.31 1.00002 2.91C1.03002 3.57 1.36002 4.25 1.36002 4.25C1.36002 4.25 2.37002 6.59 4.03002 8.38C5.58002 10.05 7.79002 11.17 7.79002 11.17C7.79002 11.17 8.72002 11.62 9.61001 11.78C10.41 11.92 11.19 11.78 11.19 11.78L12.77 10.32C12.77 10.32 13.01 10.01 13.01 9.71C13.01 9.4 12.77 9.1 12.77 9.1L10.95 7.4C10.95 7.4 10.6 7.19 10.34 7.16C10.06 7.13 9.86001 7.29 9.86001 7.29L8.52002 8.5C8.52002 8.5 7.11001 7.73 6.09001 6.68C5.11001 5.67 4.51002 4.37 4.51002 4.37Z" fill="#111111"/>
</svg>
