<svg width="14" height="12" viewBox="0 0 14 12" fill="none" xmlns="http://www.w3.org/2000/svg">
<path fill-rule="evenodd" clip-rule="evenodd" d="M4.51 4.37L5.72 3.03C5.72 3.03 5.96 2.78 5.96 2.54C5.96 2.29 5.72 2.05 5.72 2.05L3.79 0.12C3.79 0.12 3.63 0 3.42 0C3.2 0 2.94 0.12 2.94 0.12L1.24 1.7C1.24 1.7 0.97 2.31 1 2.91C1.03 3.57 1.36 4.25 1.36 4.25C1.36 4.25 2.37 6.59 4.03 8.38C5.58 10.05 7.79 11.17 7.79 11.17C7.79 11.17 8.72 11.62 9.61 11.78C10.41 11.92 11.19 11.78 11.19 11.78L12.77 10.32C12.77 10.32 13.01 10.01 13.01 9.71C13.01 9.4 12.77 9.1 12.77 9.1L10.95 7.4C10.95 7.4 10.6 7.19 10.34 7.16C10.06 7.13 9.86 7.29 9.86 7.29L8.52 8.5C8.52 8.5 7.11 7.73 6.09 6.68C5.11 5.67 4.51 4.37 4.51 4.37Z" fill="white"/>
</svg>
