<svg width="19" height="18" viewBox="0 0 19 18" fill="none" xmlns="http://www.w3.org/2000/svg">
<path fill-rule="evenodd" clip-rule="evenodd" d="M12.8002 7C12.8002 9.76142 10.5616 12 7.80017 12C5.03875 12 2.80017 9.76142 2.80017 7C2.80017 4.23858 5.03875 2 7.80017 2C10.5616 2 12.8002 4.23858 12.8002 7ZM12.0003 12.6004C10.8304 13.4792 9.37609 14 7.80017 14C3.93418 14 0.800171 10.866 0.800171 7C0.800171 3.13401 3.93418 0 7.80017 0C11.6662 0 14.8002 3.13401 14.8002 7C14.8002 8.57591 14.2794 10.0302 13.4006 11.2001C13.4378 11.2281 13.4734 11.259 13.5073 11.2929L18.5073 16.2929C18.8978 16.6834 18.8978 17.3166 18.5073 17.7071C18.1168 18.0976 17.4836 18.0976 17.0931 17.7071L12.0931 12.7071C12.0592 12.6733 12.0283 12.6376 12.0003 12.6004Z" fill="#2595DF"/>
</svg>
