<svg width="48" height="48" viewBox="0 0 48 48" fill="none" xmlns="http://www.w3.org/2000/svg">
<circle opacity="0.2" cx="24" cy="24" r="23.5" stroke="#111111"/>
<path d="M24 10.5C16.5446 10.5 10.5 16.581 10.5 24.0815C10.5 30.8593 15.4361 36.4772 21.8911 37.5V28.0083H18.4617V24.0815H21.8911V21.0892C21.8911 17.6826 23.9068 15.8041 26.9892 15.8041C28.4662 15.8041 30.0135 16.069 30.0135 16.069V19.409H28.3069C26.6328 19.409 26.1089 20.4576 26.1089 21.532V24.0788H29.8501L29.252 28.0056H26.1089V37.4973C32.5639 36.4799 37.5 30.8607 37.5 24.0815C37.5 16.581 31.4554 10.5 24 10.5Z" fill="#111111"/>
</svg>
