<svg width="48" height="48" viewBox="0 0 48 48" fill="none" xmlns="http://www.w3.org/2000/svg">
<circle opacity="0.2" cx="24" cy="24" r="23.5" stroke="#111111"/>
<path d="M38.3737 16.739C38.1995 16.115 37.8673 15.5467 37.4094 15.089C36.9515 14.6313 36.3834 14.2998 35.7601 14.1266C33.4203 13.5 24.0143 13.5 24.0143 13.5C24.0143 13.5 14.6261 13.485 12.2619 14.1266C11.6396 14.3006 11.0726 14.6324 10.6158 15.0901C10.1589 15.5477 9.82762 16.1157 9.65394 16.739C9.20961 19.1384 8.99078 21.5743 9.0003 24.0146C8.99596 26.4431 9.21476 28.867 9.65394 31.2554C9.82818 31.8791 10.1596 32.4474 10.6163 32.9059C11.073 33.3644 11.6397 33.6975 12.2619 33.8734C14.6017 34.5 24.0143 34.5 24.0143 34.5C24.0143 34.5 33.3969 34.5 35.7601 33.8734C36.3834 33.6983 36.9512 33.3655 37.4089 32.907C37.8666 32.4485 38.1989 31.8797 38.3737 31.2554C38.8042 28.8684 39.0142 26.441 38.9992 24.0146C39.0142 21.5722 38.8089 19.141 38.3737 16.739ZM21.0096 28.5114V19.498L28.8392 24.0146L21.0096 28.5114Z" fill="#111111"/>
</svg>
