<svg width="16" height="17" viewBox="0 0 16 17" fill="none" xmlns="http://www.w3.org/2000/svg">
<path fill-rule="evenodd" clip-rule="evenodd" d="M9.9782 4C9.9782 5.10543 9.08363 6 7.9782 6C6.87277 6 5.9782 5.10543 5.9782 4C5.9782 2.89457 6.87277 2 7.9782 2C9.08363 2 9.9782 2.89457 9.9782 4ZM7.9782 8C10.1882 8 11.9782 6.21 11.9782 4C11.9782 1.79 10.1882 0 7.9782 0C5.7682 0 3.9782 1.79 3.9782 4C3.9782 6.21 5.7682 8 7.9782 8ZM7.47818 9C3.52956 9 0.294643 12.0504 0 15.9242L1.99424 16.0758C2.21018 13.2369 4.58327 11 7.47818 11H8.47818C11.3731 11 13.7462 13.2369 13.9621 16.0758L15.9564 15.9242C15.6617 12.0504 12.4268 9 8.47818 9H7.47818Z" fill="white"/>
</svg>
